# This file uses centimeters as units for non-parametric coordinates.

mtllib leglower.mtl
g default
v -0.102768 0.728862 0.376937
v 0.102768 0.728862 0.376937
v -0.102768 1.489320 0.376937
v 0.102768 1.489320 0.376937
v -0.102768 1.489320 0.171401
v 0.102768 1.489320 0.171401
v -0.102768 0.728862 0.171401
v 0.102768 0.728862 0.171401
v 0.228153 0.609784 0.229173
v 0.194078 0.609784 0.186075
v 0.141006 0.609784 0.151873
v 0.074131 0.609784 0.129914
v 0.000000 0.609784 0.122348
v -0.074131 0.609784 0.129914
v -0.141006 0.609784 0.151873
v -0.194078 0.609784 0.186076
v -0.228153 0.609784 0.229173
v -0.239894 0.609784 0.276946
v -0.228153 0.609784 0.324720
v -0.194078 0.609784 0.367817
v -0.141006 0.609784 0.402019
v -0.074131 0.609784 0.423978
v 0.000000 0.609784 0.431545
v 0.074131 0.609784 0.423978
v 0.141006 0.609784 0.402019
v 0.194078 0.609784 0.367817
v 0.228153 0.609784 0.324720
v 0.239894 0.609784 0.276946
v 0.228153 0.748390 0.229173
v 0.194078 0.748390 0.186075
v 0.141006 0.748390 0.151873
v 0.074131 0.748390 0.129914
v 0.000000 0.748390 0.122348
v -0.074131 0.748390 0.129914
v -0.141006 0.748390 0.151873
v -0.194078 0.748390 0.186076
v -0.228153 0.748390 0.229173
v -0.239894 0.748390 0.276946
v -0.228153 0.748390 0.324720
v -0.194078 0.748390 0.367817
v -0.141006 0.748390 0.402019
v -0.074131 0.748390 0.423978
v 0.000000 0.748390 0.431545
v 0.074131 0.748390 0.423978
v 0.141006 0.748390 0.402019
v 0.194078 0.748390 0.367817
v 0.228153 0.748390 0.324720
v 0.239894 0.748390 0.276946
v 0.000000 0.609784 0.276946
v 0.000000 0.748390 0.276946
vt 0.375000 0.000000
vt 0.625000 0.000000
vt 0.625000 0.250000
vt 0.375000 0.250000
vt 0.625000 0.500000
vt 0.375000 0.500000
vt 0.625000 0.750000
vt 0.375000 0.750000
vt 0.625000 1.000000
vt 0.375000 1.000000
vt 0.875000 0.000000
vt 0.875000 0.250000
vt 0.125000 0.000000
vt 0.125000 0.250000
vt 0.375000 0.312500
vt 0.387500 0.312500
vt 0.387500 0.688440
vt 0.375000 0.688440
vt 0.400000 0.312500
vt 0.400000 0.688440
vt 0.412500 0.312500
vt 0.412500 0.688440
vt 0.425000 0.312500
vt 0.425000 0.688440
vt 0.437500 0.312500
vt 0.437500 0.688440
vt 0.450000 0.312500
vt 0.450000 0.688440
vt 0.462500 0.312500
vt 0.462500 0.688440
vt 0.475000 0.312500
vt 0.475000 0.688440
vt 0.487500 0.312500
vt 0.487500 0.688440
vt 0.500000 0.312500
vt 0.500000 0.688440
vt 0.512500 0.312500
vt 0.512500 0.688440
vt 0.525000 0.312500
vt 0.525000 0.688440
vt 0.537500 0.312500
vt 0.537500 0.688440
vt 0.550000 0.312500
vt 0.550000 0.688440
vt 0.562500 0.312500
vt 0.562500 0.688440
vt 0.575000 0.312500
vt 0.575000 0.688440
vt 0.587500 0.312500
vt 0.587500 0.688440
vt 0.600000 0.312500
vt 0.600000 0.688440
vt 0.612500 0.312500
vt 0.612500 0.688440
vt 0.625000 0.312500
vt 0.625000 0.688440
vt 0.626409 0.064408
vt 0.648603 0.107966
vt 0.500000 0.150000
vt 0.591842 0.029841
vt 0.548284 0.007647
vt 0.500000 -0.000000
vt 0.451716 0.007647
vt 0.408159 0.029841
vt 0.373591 0.064409
vt 0.351397 0.107966
vt 0.343750 0.156250
vt 0.351397 0.204534
vt 0.373591 0.248091
vt 0.408159 0.282659
vt 0.451716 0.304853
vt 0.500000 0.312500
vt 0.548284 0.304853
vt 0.591841 0.282659
vt 0.626409 0.248091
vt 0.648603 0.204534
vt 0.656250 0.156250
vt 0.648603 0.892034
vt 0.626409 0.935591
vt 0.500000 0.837500
vt 0.591841 0.970159
vt 0.548284 0.992353
vt 0.500000 1.000000
vt 0.451716 0.992353
vt 0.408159 0.970159
vt 0.373591 0.935591
vt 0.351397 0.892034
vt 0.343750 0.843750
vt 0.351397 0.795466
vt 0.373591 0.751909
vt 0.408159 0.717341
vt 0.451716 0.695147
vt 0.500000 0.687500
vt 0.548284 0.695147
vt 0.591842 0.717341
vt 0.626409 0.751908
vt 0.648603 0.795466
vt 0.656250 0.843750
vn 0.000000 0.000000 1.000000
vn 0.000000 0.000000 1.000000
vn 0.000000 0.000000 1.000000
vn 0.000000 0.000000 1.000000
vn 0.000000 1.000000 0.000000
vn 0.000000 1.000000 0.000000
vn 0.000000 1.000000 0.000000
vn 0.000000 1.000000 0.000000
vn 0.000000 0.000000 -1.000000
vn 0.000000 0.000000 -1.000000
vn 0.000000 0.000000 -1.000000
vn 0.000000 0.000000 -1.000000
vn 0.000000 -1.000000 0.000000
vn 0.000000 -1.000000 0.000000
vn 0.000000 -1.000000 0.000000
vn 0.000000 -1.000000 0.000000
vn 1.000000 0.000000 0.000000
vn 1.000000 0.000000 0.000000
vn 1.000000 0.000000 0.000000
vn 1.000000 0.000000 0.000000
vn -1.000000 0.000000 0.000000
vn -1.000000 0.000000 0.000000
vn -1.000000 0.000000 0.000000
vn -1.000000 0.000000 0.000000
vn 0.892928 0.000000 -0.450200
vn 0.663575 0.000000 -0.748110
vn 0.663575 0.000000 -0.748110
vn 0.892928 0.000000 -0.450200
vn 0.663575 0.000000 -0.748110
vn 0.424037 0.000000 -0.905645
vn 0.424037 0.000000 -0.905645
vn 0.663575 0.000000 -0.748110
vn 0.424037 0.000000 -0.905645
vn 0.204948 0.000000 -0.978773
vn 0.204948 0.000000 -0.978773
vn 0.424037 0.000000 -0.905645
vn 0.204948 0.000000 -0.978773
vn 0.000000 0.000000 -1.000000
vn 0.000000 0.000000 -1.000000
vn 0.204948 0.000000 -0.978773
vn 0.000000 0.000000 -1.000000
vn -0.204948 0.000000 -0.978773
vn -0.204948 0.000000 -0.978773
vn 0.000000 0.000000 -1.000000
vn -0.204948 0.000000 -0.978773
vn -0.424038 0.000000 -0.905644
vn -0.424038 0.000000 -0.905644
vn -0.204948 0.000000 -0.978773
vn -0.424038 0.000000 -0.905644
vn -0.663575 0.000000 -0.748110
vn -0.663575 0.000000 -0.748110
vn -0.424038 0.000000 -0.905644
vn -0.663575 0.000000 -0.748110
vn -0.892927 0.000000 -0.450201
vn -0.892927 0.000000 -0.450201
vn -0.663575 0.000000 -0.748110
vn -0.892927 0.000000 -0.450201
vn -1.000000 0.000000 0.000000
vn -1.000000 0.000000 0.000000
vn -0.892927 0.000000 -0.450201
vn -1.000000 0.000000 0.000000
vn -0.892927 0.000000 0.450201
vn -0.892927 0.000000 0.450201
vn -1.000000 0.000000 0.000000
vn -0.892927 0.000000 0.450201
vn -0.663575 0.000000 0.748110
vn -0.663575 0.000000 0.748110
vn -0.892927 0.000000 0.450201
vn -0.663575 0.000000 0.748110
vn -0.424037 0.000000 0.905645
vn -0.424037 0.000000 0.905645
vn -0.663575 0.000000 0.748110
vn -0.424037 0.000000 0.905645
vn -0.204948 0.000000 0.978773
vn -0.204948 0.000000 0.978773
vn -0.424037 0.000000 0.905645
vn -0.204948 0.000000 0.978773
vn 0.000000 0.000000 1.000000
vn 0.000000 0.000000 1.000000
vn -0.204948 0.000000 0.978773
vn 0.000000 0.000000 1.000000
vn 0.204948 0.000000 0.978773
vn 0.204948 0.000000 0.978773
vn 0.000000 0.000000 1.000000
vn 0.204948 0.000000 0.978773
vn 0.424037 0.000000 0.905645
vn 0.424037 0.000000 0.905645
vn 0.204948 0.000000 0.978773
vn 0.424037 0.000000 0.905645
vn 0.663575 0.000000 0.748110
vn 0.663575 0.000000 0.748110
vn 0.424037 0.000000 0.905645
vn 0.663575 0.000000 0.748110
vn 0.892927 0.000000 0.450201
vn 0.892927 0.000000 0.450201
vn 0.663575 0.000000 0.748110
vn 0.892927 0.000000 0.450201
vn 1.000000 0.000000 0.000002
vn 1.000000 0.000000 0.000002
vn 0.892927 0.000000 0.450201
vn 1.000000 0.000000 0.000002
vn 0.892928 0.000000 -0.450200
vn 0.892928 0.000000 -0.450200
vn 1.000000 0.000000 0.000002
vn 0.000000 -1.000000 -0.000001
vn 0.000000 -1.000000 -0.000001
vn 0.000000 -1.000000 0.000000
vn 0.000000 -1.000000 -0.000001
vn 0.000000 -1.000000 -0.000001
vn 0.000000 -1.000000 0.000000
vn 0.000000 -1.000000 0.000000
vn 0.000000 -1.000000 -0.000001
vn 0.000000 -1.000000 0.000000
vn 0.000000 -1.000000 0.000000
vn 0.000000 -1.000000 0.000000
vn 0.000000 -1.000000 0.000000
vn 0.000000 -1.000000 0.000000
vn 0.000000 -1.000000 0.000000
vn 0.000000 -1.000000 0.000000
vn 0.000000 -1.000000 0.000000
vn 0.000000 -1.000000 0.000000
vn 0.000000 -1.000000 0.000000
vn 0.000000 -1.000000 0.000000
vn 0.000000 -1.000000 0.000000
vn 0.000000 -1.000000 0.000000
vn 0.000000 -1.000000 0.000000
vn 0.000000 -1.000000 0.000000
vn 0.000000 -1.000000 0.000000
vn 0.000000 -1.000000 0.000000
vn 0.000000 -1.000000 0.000000
vn 0.000000 -1.000000 0.000000
vn 0.000000 -1.000000 0.000000
vn 0.000000 -1.000000 0.000000
vn 0.000000 -1.000000 0.000000
vn 0.000000 -1.000000 0.000000
vn 0.000000 -1.000000 0.000000
vn 0.000000 -1.000000 0.000000
vn 0.000000 -1.000000 0.000000
vn 0.000000 -1.000000 0.000000
vn 0.000000 -1.000000 0.000000
vn 0.000000 -1.000000 0.000000
vn 0.000000 -1.000000 0.000000
vn 0.000000 -1.000000 0.000000
vn 0.000000 -1.000000 0.000000
vn 0.000000 -1.000000 0.000000
vn 0.000000 -1.000000 0.000000
vn 0.000000 -1.000000 0.000001
vn 0.000000 -1.000000 0.000000
vn 0.000000 -1.000000 0.000000
vn 0.000000 -1.000000 0.000000
vn 0.000000 -1.000000 0.000001
vn 0.000000 -1.000000 0.000000
vn 0.000000 -1.000000 0.000000
vn 0.000000 -1.000000 0.000000
vn 0.000000 -1.000000 0.000000
vn 0.000000 -1.000000 0.000000
vn 0.000000 -1.000000 0.000000
vn 0.000000 -1.000000 0.000000
vn 0.000000 -1.000000 0.000000
vn 0.000000 -1.000000 0.000000
vn 0.000000 -1.000000 0.000000
vn 0.000000 -1.000000 -0.000001
vn 0.000000 -1.000000 0.000000
vn 0.000000 -1.000000 0.000000
vn 0.000000 1.000000 0.000000
vn 0.000000 1.000000 0.000000
vn 0.000000 1.000000 0.000000
vn 0.000000 1.000000 0.000000
vn 0.000000 1.000000 0.000000
vn 0.000000 1.000000 0.000000
vn 0.000000 1.000000 0.000000
vn 0.000000 1.000000 0.000000
vn 0.000000 1.000000 0.000000
vn 0.000000 1.000000 0.000000
vn 0.000000 1.000000 0.000000
vn 0.000000 1.000000 0.000000
vn 0.000000 1.000000 0.000000
vn 0.000000 1.000000 0.000000
vn 0.000000 1.000000 0.000000
vn 0.000000 1.000000 0.000000
vn 0.000000 1.000000 -0.000001
vn 0.000000 1.000000 0.000000
vn 0.000000 1.000000 -0.000001
vn 0.000000 1.000000 0.000000
vn 0.000000 1.000000 0.000000
vn 0.000000 1.000000 0.000000
vn 0.000000 1.000000 0.000000
vn 0.000000 1.000000 0.000000
vn 0.000000 1.000000 0.000000
vn 0.000000 1.000000 0.000000
vn 0.000000 1.000000 0.000000
vn 0.000000 1.000000 0.000000
vn 0.000000 1.000000 0.000000
vn 0.000000 1.000000 0.000000
vn 0.000000 1.000000 0.000000
vn 0.000000 1.000000 0.000000
vn 0.000000 1.000000 0.000000
vn 0.000000 1.000000 0.000000
vn 0.000000 1.000000 0.000000
vn 0.000000 1.000000 0.000000
vn 0.000000 1.000000 0.000000
vn 0.000000 1.000000 0.000000
vn 0.000000 1.000000 0.000000
vn 0.000000 1.000000 0.000000
vn 0.000000 1.000000 0.000000
vn 0.000000 1.000000 0.000000
vn 0.000000 1.000000 0.000000
vn 0.000000 1.000000 0.000000
vn 0.000000 1.000000 0.000000
vn 0.000000 1.000000 0.000000
vn 0.000000 1.000000 0.000001
vn 0.000000 1.000000 0.000000
vn 0.000000 1.000000 0.000001
vn 0.000000 1.000000 0.000000
vn 0.000000 1.000000 0.000000
vn 0.000000 1.000000 0.000000
vn 0.000000 1.000000 0.000000
vn 0.000000 1.000000 0.000000
vn 0.000000 1.000000 0.000000
vn 0.000000 1.000000 0.000000
vn 0.000000 1.000000 0.000000
vn 0.000000 1.000000 0.000000
vn 0.000000 1.000000 0.000000
vn 0.000000 1.000000 0.000000
s off
g rigthfootUp:pCube10
usemtl initialShadingGroup
f 1/1/1 2/2/2 4/3/3 3/4/4
f 3/4/5 4/3/6 6/5/7 5/6/8
f 5/6/9 6/5/10 8/7/11 7/8/12
f 7/8/13 8/7/14 2/9/15 1/10/16
f 2/2/17 8/11/18 6/12/19 4/3/20
f 7/13/21 1/1/22 3/4/23 5/14/24
f 9/15/25 10/16/26 30/17/27 29/18/28
f 10/16/29 11/19/30 31/20/31 30/17/32
f 11/19/33 12/21/34 32/22/35 31/20/36
f 12/21/37 13/23/38 33/24/39 32/22/40
f 13/23/41 14/25/42 34/26/43 33/24/44
f 14/25/45 15/27/46 35/28/47 34/26/48
f 15/27/49 16/29/50 36/30/51 35/28/52
f 16/29/53 17/31/54 37/32/55 36/30/56
f 17/31/57 18/33/58 38/34/59 37/32/60
f 18/33/61 19/35/62 39/36/63 38/34/64
f 19/35/65 20/37/66 40/38/67 39/36/68
f 20/37/69 21/39/70 41/40/71 40/38/72
f 21/39/73 22/41/74 42/42/75 41/40/76
f 22/41/77 23/43/78 43/44/79 42/42/80
f 23/43/81 24/45/82 44/46/83 43/44/84
f 24/45/85 25/47/86 45/48/87 44/46/88
f 25/47/89 26/49/90 46/50/91 45/48/92
f 26/49/93 27/51/94 47/52/95 46/50/96
f 27/51/97 28/53/98 48/54/99 47/52/100
f 28/53/101 9/55/102 29/56/103 48/54/104
f 10/57/105 9/58/106 49/59/107
f 11/60/108 10/57/109 49/59/110
f 12/61/111 11/60/112 49/59/113
f 13/62/114 12/61/115 49/59/116
f 14/63/117 13/62/118 49/59/119
f 15/64/120 14/63/121 49/59/122
f 16/65/123 15/64/124 49/59/125
f 17/66/126 16/65/127 49/59/128
f 18/67/129 17/66/130 49/59/131
f 19/68/132 18/67/133 49/59/134
f 20/69/135 19/68/136 49/59/137
f 21/70/138 20/69/139 49/59/140
f 22/71/141 21/70/142 49/59/143
f 23/72/144 22/71/145 49/59/146
f 24/73/147 23/72/148 49/59/149
f 25/74/150 24/73/151 49/59/152
f 26/75/153 25/74/154 49/59/155
f 27/76/156 26/75/157 49/59/158
f 28/77/159 27/76/160 49/59/161
f 9/58/162 28/77/163 49/59/164
f 29/78/165 30/79/166 50/80/167
f 30/79/168 31/81/169 50/80/170
f 31/81/171 32/82/172 50/80/173
f 32/82/174 33/83/175 50/80/176
f 33/83/177 34/84/178 50/80/179
f 34/84/180 35/85/181 50/80/182
f 35/85/183 36/86/184 50/80/185
f 36/86/186 37/87/187 50/80/188
f 37/87/189 38/88/190 50/80/191
f 38/88/192 39/89/193 50/80/194
f 39/89/195 40/90/196 50/80/197
f 40/90/198 41/91/199 50/80/200
f 41/91/201 42/92/202 50/80/203
f 42/92/204 43/93/205 50/80/206
f 43/93/207 44/94/208 50/80/209
f 44/94/210 45/95/211 50/80/212
f 45/95/213 46/96/214 50/80/215
f 46/96/216 47/97/217 50/80/218
f 47/97/219 48/98/220 50/80/221
f 48/98/222 29/78/223 50/80/224
